<svg width="26" height="26" viewBox="0 0 26 26" fill="none" xmlns="http://www.w3.org/2000/svg">
<path d="M16.3476 22.3925C16.5534 22.3925 16.7592 22.3167 16.9217 22.1542C17.2359 21.84 17.2359 21.32 16.9217 21.0058L9.85839 13.9425C9.33839 13.4225 9.33839 12.5775 9.85839 12.0575L16.9217 4.99416C17.2359 4.67999 17.2359 4.15999 16.9217 3.84582C16.6076 3.53166 16.0876 3.53166 15.7734 3.84582L8.71006 10.9092C8.15756 11.4617 7.84339 12.2092 7.84339 13C7.84339 13.7908 8.14672 14.5383 8.71006 15.0908L15.7734 22.1542C15.9359 22.3058 16.1417 22.3925 16.3476 22.3925Z" fill="#1A2630"/>
</svg>
