<svg width="26" height="26" viewBox="0 0 26 26" fill="none" xmlns="http://www.w3.org/2000/svg">
<path d="M9.65244 22.3925C9.44661 22.3925 9.24078 22.3167 9.07828 22.1542C8.76411 21.84 8.76411 21.32 9.07828 21.0058L16.1416 13.9425C16.6616 13.4225 16.6616 12.5775 16.1416 12.0575L9.07828 4.99416C8.76411 4.67999 8.76411 4.15999 9.07828 3.84582C9.39244 3.53166 9.91244 3.53166 10.2266 3.84582L17.2899 10.9092C17.8424 11.4617 18.1566 12.2092 18.1566 13C18.1566 13.7908 17.8533 14.5383 17.2899 15.0908L10.2266 22.1542C10.0641 22.3058 9.85828 22.3925 9.65244 22.3925Z" fill="#1A2630"/>
</svg>
