<svg width="93" height="93" viewBox="0 0 93 93" fill="none" xmlns="http://www.w3.org/2000/svg">
<circle cx="3" cy="3" r="3" fill="white"/>
<circle cx="24.625" cy="3" r="3" fill="white"/>
<circle cx="46.25" cy="3" r="3" fill="white"/>
<circle cx="67.875" cy="3" r="3" fill="white"/>
<circle cx="89.5" cy="3" r="3" fill="white"/>
<circle cx="3" cy="24.625" r="3" fill="white"/>
<circle cx="24.625" cy="24.625" r="3" fill="white"/>
<circle cx="46.25" cy="24.625" r="3" fill="white"/>
<circle cx="67.875" cy="24.625" r="3" fill="white"/>
<circle cx="89.5" cy="24.625" r="3" fill="white"/>
<circle cx="3" cy="46.25" r="3" fill="white"/>
<circle cx="24.625" cy="46.25" r="3" fill="white"/>
<circle cx="46.25" cy="46.25" r="3" fill="white"/>
<circle cx="67.875" cy="46.25" r="3" fill="white"/>
<circle cx="89.5" cy="46.25" r="3" fill="white"/>
<circle cx="3" cy="67.875" r="3" fill="white"/>
<circle cx="24.625" cy="67.875" r="3" fill="white"/>
<circle cx="46.25" cy="67.875" r="3" fill="white"/>
<circle cx="67.875" cy="67.875" r="3" fill="white"/>
<circle cx="89.5" cy="67.875" r="3" fill="white"/>
<circle cx="3" cy="89.5" r="3" fill="white"/>
<circle cx="24.625" cy="89.5" r="3" fill="white"/>
<circle cx="46.25" cy="89.5" r="3" fill="white"/>
<circle cx="67.875" cy="89.5" r="3" fill="white"/>
<circle cx="89.5" cy="89.5" r="3" fill="white"/>
</svg>
